<svg xmlns="http://www.w3.org/2000/svg" xmlns:xlink="http://www.w3.org/1999/xlink" viewBox="0 0 32 32" version="1.1">
<g id="surface1">
<path style=" stroke:none;fill-rule:evenodd;fill:rgb(57.254905%,44.313726%,80.000001%);fill-opacity:1;" d="M 6.398438 3.199219 L 25.601562 3.199219 C 27.367188 3.199219 28.800781 4.632812 28.800781 6.398438 L 28.800781 25.601562 C 28.800781 27.367188 27.367188 28.800781 25.601562 28.800781 L 6.398438 28.800781 C 4.632812 28.800781 3.199219 27.367188 3.199219 25.601562 L 3.199219 6.398438 C 3.199219 4.632812 4.632812 3.199219 6.398438 3.199219 Z M 6.398438 3.199219 "/>
<path style=" stroke:none;fill-rule:nonzero;fill:rgb(0%,0%,0%);fill-opacity:1;" d="M 26.46875 22.09375 L 19.941406 12.109375 C 19.558594 11.53125 19.339844 10.855469 19.339844 10.1875 L 19.339844 6.144531 L 19.867188 6.144531 C 20.300781 6.144531 20.644531 5.8125 20.644531 5.390625 C 20.644531 5.019531 20.289062 4.671875 19.867188 4.671875 L 12.121094 4.671875 C 11.6875 4.671875 11.378906 5.019531 11.378906 5.390625 C 11.378906 5.8125 11.6875 6.144531 12.121094 6.144531 L 12.644531 6.144531 L 12.644531 10.1875 C 12.644531 10.855469 12.429688 11.53125 12.082031 12.109375 L 5.515625 22.09375 C 4.378906 24.011719 5.824219 26.433594 8.167969 26.433594 L 23.859375 26.433594 C 26.164062 26.433594 27.636719 24.011719 26.46875 22.09375 Z M 12.558594 20.082031 C 11.25 20.46875 8.691406 20.042969 9.511719 18.789062 L 13.335938 12.902344 C 13.863281 12.070312 14.167969 11.148438 14.167969 10.1875 L 14.167969 6.144531 L 17.855469 6.144531 L 17.855469 10.1875 C 17.855469 11.148438 18.125 12.070312 18.636719 12.902344 L 20.863281 16.332031 C 21.246094 16.910156 20.644531 17.203125 20.160156 17.253906 C 16.691406 17.496094 15.425781 19.289062 12.558594 20.082031 Z M 12.558594 20.082031 "/>
</g>
</svg>
